<svg width="140" height="31" viewBox="0 0 140 31" fill="none" xmlns="http://www.w3.org/2000/svg">
<path d="M26.1514 6.46045L15.5629 0.43833C14.5374 -0.14611 13.2721 -0.14611 12.2466 0.43833L1.65814 6.46045C0.632666 7.0449 0 8.1215 0 9.29038V21.3346C0 22.5035 0.632666 23.5801 1.65814 24.1645L12.2466 30.1867C13.2721 30.7711 14.5374 30.7711 15.5629 30.1867L26.1514 24.1645C27.1768 23.5801 27.8095 22.5001 27.8095 21.3346V9.29038C27.8095 8.1215 27.1768 7.0449 26.1514 6.46045ZM15.0623 19.0447C13.9604 20.1281 12.4934 20.7263 10.9361 20.7263C9.37876 20.7263 7.9118 20.1281 6.80985 19.0447C4.53295 16.8061 4.53295 13.1661 6.80985 10.9275L7.80057 9.95342C8.25595 9.5057 8.99638 9.5057 9.45176 9.95342C9.90714 10.4012 9.90714 11.1291 9.45176 11.5769L8.46104 12.5509C7.0949 13.8941 7.0949 16.0781 8.46104 17.4213C9.12152 18.0706 10.001 18.4295 10.9361 18.4295C11.8712 18.4295 12.7507 18.0706 13.4111 17.4213L16.053 14.8238C16.5084 14.376 17.2488 14.376 17.7042 14.8238C18.1596 15.2715 18.1596 15.9995 17.7042 16.4472L15.0623 19.0447ZM21.0066 19.6941L20.0159 20.6682C19.7865 20.8937 19.4875 21.0031 19.192 21.0031C18.8966 21.0031 18.5941 20.8903 18.3682 20.6682C17.9128 20.2204 17.9128 19.4924 18.3682 19.0447L19.3589 18.0706C20.725 16.7275 20.725 14.5435 19.3589 13.2003C17.9928 11.8571 15.7715 11.8571 14.4053 13.2003L11.7634 15.7978C11.308 16.2456 10.5676 16.2456 10.1122 15.7978C9.65685 15.3501 9.65685 14.6221 10.1122 14.1744L12.7541 11.5769C15.031 9.33822 18.7332 9.33822 21.0101 11.5769C23.287 13.8155 23.287 17.4554 21.0101 19.6941H21.0066Z" fill="#292C33"/>
<path d="M59.0048 25.2241C54.9794 25.2241 51.7048 22.0045 51.7048 18.0467C51.7048 14.0889 54.9794 10.8694 59.0048 10.8694C63.0302 10.8694 66.3048 14.0889 66.3048 18.0467C66.3048 22.0045 63.0302 25.2241 59.0048 25.2241ZM59.0048 14.9707C57.2806 14.9707 55.8763 16.3515 55.8763 18.0467C55.8763 19.7419 57.2806 21.1227 59.0048 21.1227C60.729 21.1227 62.1334 19.7419 62.1334 18.0467C62.1334 16.3515 60.729 14.9707 59.0048 14.9707Z" fill="#292C33"/>
<path d="M44.7246 25.2241C39.2635 25.2241 34.8175 20.8527 34.8175 15.4834C34.8175 10.1141 39.2635 5.74272 44.7246 5.74272C47.0919 5.74272 49.3827 6.58008 51.1764 8.09415L48.4581 11.2043C47.4187 10.326 46.0943 9.84406 44.7246 9.84406C41.5613 9.84406 38.9889 12.3732 38.9889 15.4834C38.9889 18.5936 41.5613 21.1227 44.7246 21.1227C46.0943 21.1227 47.4187 20.6374 48.4581 19.7624L51.1764 22.8726C49.3827 24.3901 47.0884 25.2241 44.7246 25.2241Z" fill="#292C33"/>
<path d="M127.833 21.1022L127.802 20.945C126.811 21.1227 124.267 21.1227 123.179 21.1227C121.455 21.1227 120.05 19.7419 120.05 18.0467C120.05 16.3515 121.455 14.9707 123.179 14.9707C124.267 14.9707 126.811 14.9707 127.802 15.1484L127.833 14.9878V11.0164C126.558 10.8831 124.788 10.8694 123.182 10.8694C119.157 10.8694 115.882 14.0889 115.882 18.0467C115.882 22.0045 119.157 25.2241 123.182 25.2241C124.792 25.2241 126.561 25.2104 127.833 25.0771V21.1022Z" fill="#292C33"/>
<path d="M114.276 18.0467C114.276 17.8109 114.262 17.5819 114.241 17.3529C114.221 17.1273 114.186 16.9018 114.141 16.683C113.491 13.378 110.525 10.8728 106.976 10.8728C102.951 10.8728 99.6762 14.0924 99.6762 18.0501C99.6762 22.0079 102.951 25.2275 106.976 25.2275C108.53 25.2275 110.233 25.2138 111.495 25.0942V20.9655C110.445 21.1261 108.029 21.1296 106.976 21.1296C105.753 21.1296 104.692 20.4323 104.178 19.4207H114.141C114.228 18.9764 114.276 18.5218 114.276 18.0536V18.0467ZM106.976 14.9707C108.2 14.9707 109.26 15.6679 109.775 16.6796H104.178C104.692 15.6679 105.753 14.9707 106.976 14.9707Z" fill="#292C33"/>
<path d="M140 10.8694H136.871V5.40094H132.7V10.8694H129.571V14.9707H132.7V25.2241H136.871V14.9707H140V10.8694Z" fill="#292C33"/>
<path d="M81.9477 24.8823H77.7762V17.3632C77.7762 16.2319 76.8411 15.3125 75.6905 15.3125H72.2143V24.8823H68.0429V15.3125C68.0429 13.0499 69.9131 11.2112 72.2143 11.2112H75.6905C79.1389 11.2112 81.9477 13.9727 81.9477 17.3632V24.8823Z" fill="#292C33"/>
<path d="M98.2857 24.8823H94.1143V17.3632C94.1143 16.2319 93.1792 15.3125 92.0286 15.3125H88.5524V24.8823H84.381V15.3125C84.381 13.0499 86.2512 11.2112 88.5524 11.2112H92.0286C95.477 11.2112 98.2857 13.9727 98.2857 17.3632V24.8823Z" fill="#292C33"/>
</svg>
