<svg width="200" height="44" viewBox="0 0 200 44" fill="none" xmlns="http://www.w3.org/2000/svg">
<path d="M37.3591 9.28196L22.2327 0.629764C20.7677 -0.209921 18.9601 -0.209921 17.4952 0.629764L2.36877 9.28196C0.903809 10.1216 0 11.6684 0 13.3478V30.6522C0 32.3316 0.903809 33.8784 2.36877 34.718L17.4952 43.3702C18.9601 44.2099 20.7677 44.2099 22.2327 43.3702L37.3591 34.718C38.8241 33.8784 39.7279 32.3267 39.7279 30.6522V13.3478C39.7279 11.6684 38.8241 10.1216 37.3591 9.28196ZM21.5176 27.3622C19.9434 28.9188 17.8477 29.7781 15.623 29.7781C13.3982 29.7781 11.3026 28.9188 9.72836 27.3622C6.47564 24.1459 6.47564 18.9162 9.72836 15.6999L11.1437 14.3004C11.7942 13.6572 12.852 13.6572 13.5025 14.3004C14.1531 14.9437 14.1531 15.9896 13.5025 16.6329L12.0872 18.0324C10.1356 19.9622 10.1356 23.0999 12.0872 25.0297C13.0307 25.9627 14.2871 26.4783 15.623 26.4783C16.9588 26.4783 18.2152 25.9627 19.1588 25.0297L22.9329 21.2978C23.5835 20.6545 24.6412 20.6545 25.2918 21.2978C25.9423 21.9411 25.9423 22.987 25.2918 23.6303L21.5176 27.3622ZM30.0094 28.2952L28.5941 29.6947C28.2664 30.0187 27.8393 30.1759 27.4172 30.1759C26.9951 30.1759 26.563 30.0138 26.2403 29.6947C25.5897 29.0514 25.5897 28.0055 26.2403 27.3622L27.6556 25.9627C29.6072 24.0329 29.6072 20.8951 27.6556 18.9653C25.7039 17.0355 22.5307 17.0355 20.579 18.9653L16.8049 22.6973C16.1543 23.3405 15.0966 23.3405 14.446 22.6973C13.7955 22.054 13.7955 21.0081 14.446 20.3648L18.2202 16.6329C21.4729 13.4165 26.7617 13.4165 30.0144 16.6329C33.2671 19.8492 33.2671 25.0788 30.0144 28.2952H30.0094Z" fill="#3355FF"/>
<path d="M84.2926 36.2403C78.542 36.2403 73.864 31.6146 73.864 25.9284C73.864 20.2421 78.542 15.6164 84.2926 15.6164C90.0432 15.6164 94.7212 20.2421 94.7212 25.9284C94.7212 31.6146 90.0432 36.2403 84.2926 36.2403ZM84.2926 21.509C81.8295 21.509 79.8232 23.4928 79.8232 25.9284C79.8232 28.3639 81.8295 30.3477 84.2926 30.3477C86.7557 30.3477 88.762 28.3639 88.762 25.9284C88.762 23.4928 86.7557 21.509 84.2926 21.509Z" fill="#3355FF"/>
<path d="M63.8923 36.2403C56.0908 36.2403 49.7393 29.9598 49.7393 22.2455C49.7393 14.5312 56.0908 8.25077 63.8923 8.25077C67.2742 8.25077 70.5468 9.45382 73.1092 11.6292L69.2258 16.0976C67.741 14.8357 65.8489 14.1433 63.8923 14.1433C59.3733 14.1433 55.6985 17.777 55.6985 22.2455C55.6985 26.714 59.3733 30.3477 63.8923 30.3477C65.8489 30.3477 67.741 29.6505 69.2258 28.3934L73.1092 32.8619C70.5468 35.0421 67.2692 36.2403 63.8923 36.2403Z" fill="#3355FF"/>
<path d="M182.619 30.3183L182.574 30.0924C181.159 30.3477 177.524 30.3477 175.97 30.3477C173.506 30.3477 171.5 28.3639 171.5 25.9284C171.5 23.4928 173.506 21.509 175.97 21.509C177.524 21.509 181.159 21.509 182.574 21.7643L182.619 21.5335V15.8276C180.797 15.6361 178.269 15.6164 175.975 15.6164C170.224 15.6164 165.546 20.2421 165.546 25.9284C165.546 31.6146 170.224 36.2403 175.975 36.2403C178.274 36.2403 180.801 36.2206 182.619 36.0291V30.3183Z" fill="#3355FF"/>
<path d="M163.252 25.9284C163.252 25.5895 163.232 25.2605 163.202 24.9315C163.172 24.6074 163.123 24.2834 163.058 23.9691C162.129 19.2207 157.893 15.6213 152.823 15.6213C147.073 15.6213 142.395 20.247 142.395 25.9333C142.395 31.6196 147.073 36.2452 152.823 36.2452C155.043 36.2452 157.476 36.2255 159.279 36.0537V30.1219C157.779 30.3527 154.328 30.3576 152.823 30.3576C151.075 30.3576 149.561 29.3558 148.826 27.9023H163.058C163.182 27.264 163.252 26.6109 163.252 25.9382V25.9284ZM152.823 21.509C154.571 21.509 156.086 22.5107 156.821 23.9642H148.826C149.561 22.5107 151.075 21.509 152.823 21.509Z" fill="#3355FF"/>
<path d="M200 15.6164H195.531V7.75972H189.571V15.6164H185.102V21.509H189.571V36.2403H195.531V21.509H200V15.6164Z" fill="#3355FF"/>
<path d="M117.068 35.7492H111.109V24.9463C111.109 23.3209 109.773 22 108.129 22H103.163V35.7492H97.2042V22C97.2042 18.7493 99.8759 16.1075 103.163 16.1075H108.129C113.056 16.1075 117.068 20.0751 117.068 24.9463V35.7492Z" fill="#3355FF"/>
<path d="M140.408 35.7492H134.449V24.9463C134.449 23.3209 133.113 22 131.469 22H126.503V35.7492H120.544V22C120.544 18.7493 123.216 16.1075 126.503 16.1075H131.469C136.396 16.1075 140.408 20.0751 140.408 24.9463V35.7492Z" fill="#3355FF"/>
</svg>
