<svg width="48" height="48" viewBox="0 0 48 48" fill="none" xmlns="http://www.w3.org/2000/svg">
<path fill-rule="evenodd" clip-rule="evenodd" d="M44 24C44 35.0457 35.0457 44 24 44C12.9543 44 4 35.0457 4 24C4 12.9543 12.9543 4 24 4C35.0457 4 44 12.9543 44 24ZM30 18C30 21.3137 27.3137 24 24 24C20.6863 24 18 21.3137 18 18C18 14.6863 20.6863 12 24 12C27.3137 12 30 14.6863 30 18ZM11.2134 28.9848C10.9793 27.9053 11.8954 27 13 27L24 27L35 27C36.1046 27 37.0207 27.9053 36.7866 28.9848C36.6217 29.7456 36.362 30.4914 36.0104 31.2095C35.3571 32.5441 34.3995 33.7567 33.1924 34.7782C31.9852 35.7996 30.5521 36.6099 28.9749 37.1627C27.3977 37.7155 25.7072 38 24 38C22.2928 38 20.6024 37.7155 19.0251 37.1627C17.4479 36.6099 16.0148 35.7996 14.8076 34.7782C13.6005 33.7567 12.6429 32.5441 11.9896 31.2095C11.638 30.4914 11.3783 29.7456 11.2134 28.9848Z" fill="#3355FF"/>
</svg>
