<svg width="22" height="22" viewBox="0 0 22 22" fill="none" xmlns="http://www.w3.org/2000/svg">
<path fill-rule="evenodd" clip-rule="evenodd" d="M12.393 3.35248C11.617 2.5993 10.3829 2.5993 9.60699 3.35248L8.03171 4.88153C7.79427 5.112 7.50337 5.27995 7.18506 5.37034L5.07322 5.97005C4.03298 6.26546 3.41593 7.33421 3.68023 8.3828L4.21678 10.5116C4.29765 10.8324 4.29765 11.1683 4.21678 11.4892L3.68023 13.6179C3.41593 14.6665 4.03298 15.7353 5.07322 16.0307L7.18506 16.6304C7.50337 16.7208 7.79427 16.8887 8.03171 17.1192L9.60699 18.6482C10.3829 19.4014 11.617 19.4014 12.393 18.6482L13.9683 17.1192C14.2057 16.8887 14.4966 16.7208 14.8149 16.6304L16.9267 16.0307C17.967 15.7353 18.584 14.6665 18.3197 13.6179L17.7832 11.4892C17.7023 11.1683 17.7023 10.8324 17.7832 10.5116L18.3197 8.3828C18.584 7.33421 17.967 6.26546 16.9268 5.97005L14.8149 5.37034C14.4966 5.27995 14.2057 5.112 13.9683 4.88153L12.393 3.35248ZM11 13C12.1046 13 13 12.1046 13 11C13 9.89543 12.1046 9 11 9C9.89543 9 9 9.89543 9 11C9 12.1046 9.89543 13 11 13Z" fill="#3355FF"/>
</svg>
