<svg width="22" height="22" viewBox="0 0 22 22" fill="none" xmlns="http://www.w3.org/2000/svg">
<path d="M8.71429 6.5C8.99043 6.5 9.21429 6.27614 9.21429 6C9.21429 5.72386 8.99043 5.5 8.71429 5.5V6.5ZM16.5 13.2857C16.5 13.0096 16.2761 12.7857 16 12.7857C15.7239 12.7857 15.5 13.0096 15.5 13.2857H16.5ZM12 5.5C11.7239 5.5 11.5 5.72386 11.5 6C11.5 6.27614 11.7239 6.5 12 6.5V5.5ZM16 6H16.5C16.5 5.72386 16.2761 5.5 16 5.5V6ZM15.5 10C15.5 10.2761 15.7239 10.5 16 10.5C16.2761 10.5 16.5 10.2761 16.5 10H15.5ZM9.64645 11.6464C9.45118 11.8417 9.45118 12.1583 9.64645 12.3536C9.84171 12.5488 10.1583 12.5488 10.3536 12.3536L9.64645 11.6464ZM8.71429 5.5H8V6.5H8.71429V5.5ZM5.5 8V14H6.5V8H5.5ZM8 16.5H14V15.5H8V16.5ZM16.5 14V13.2857H15.5V14H16.5ZM14 16.5C15.3807 16.5 16.5 15.3807 16.5 14H15.5C15.5 14.8284 14.8284 15.5 14 15.5V16.5ZM5.5 14C5.5 15.3807 6.61929 16.5 8 16.5V15.5C7.17157 15.5 6.5 14.8284 6.5 14H5.5ZM8 5.5C6.61929 5.5 5.5 6.61929 5.5 8H6.5C6.5 7.17157 7.17157 6.5 8 6.5V5.5ZM12 6.5H16V5.5H12V6.5ZM15.5 6V10H16.5V6H15.5ZM10.3536 12.3536L16.3536 6.35355L15.6464 5.64645L9.64645 11.6464L10.3536 12.3536Z" fill="#8A9299"/>
</svg>
