<svg width="32" height="32" viewBox="0 0 32 32" fill="none" xmlns="http://www.w3.org/2000/svg">
<path fill-rule="evenodd" clip-rule="evenodd" d="M9.20375 6.83333H25.0833C25.5896 6.83333 26 6.42293 26 5.91667C26 5.41041 25.5896 5 25.0833 5H8.75C7.23108 5 6 6.23108 6 7.75V24.25C6 25.7689 7.23108 27 8.75 27H25C25.5523 27 26 26.5523 26 26V9.66667C26 9.11438 25.5523 8.66667 25 8.66667H9.20375C7.94333 8.66667 7.94333 6.83333 9.20375 6.83333ZM17 17V21C17 21.5523 16.5523 22 16 22C15.4477 22 15 21.5523 15 21V17C15 16.4477 15.4477 16 16 16C16.5523 16 17 16.4477 17 17ZM16 13C15.4477 13 15 13.4477 15 14C15 14.5523 15.4477 15 16 15C16.5523 15 17 14.5523 17 14C17 13.4477 16.5523 13 16 13Z" fill="#8A8D99"/>
</svg>
