<svg width="22" height="22" viewBox="0 0 22 22" fill="none" xmlns="http://www.w3.org/2000/svg">
<path fill-rule="evenodd" clip-rule="evenodd" d="M18.9998 11C18.9998 11 18.9998 10.9999 18.9997 10.9999L12.4142 4.4144C11.6332 3.63335 10.3668 3.63335 9.58579 4.4144L3.00027 10.9999C3.00024 10.9999 3.0002 11 3.00016 11V11C3.00007 11 3 11 3 11.0001V11.0002V16.9991C3 18.1037 3.89543 18.9991 5 18.9991H9V18.9991C9 18.9996 9.00037 19 9.00083 19H12.9992C12.9996 19 13 18.9996 13 18.9991V18.9991H17C18.1046 18.9991 19 18.1037 19 16.9991V11.0002V11.0001C19 11 18.9999 11 18.9998 11V11ZM13 18.9991H9V15.6666C9 14.5621 9.89543 13.6666 11 13.6666V13.6666C12.1046 13.6666 13 14.5621 13 15.6666V18.9991Z" fill="#8A9299"/>
</svg>
