<svg width="22" height="22" viewBox="0 0 22 22" fill="none" xmlns="http://www.w3.org/2000/svg">
<path fill-rule="evenodd" clip-rule="evenodd" d="M19 11C19 15.4183 15.4183 19 11 19C6.58172 19 3 15.4183 3 11C3 6.58172 6.58172 3 11 3C15.4183 3 19 6.58172 19 11ZM12 12V7C12 6.44772 11.5523 6 11 6C10.4477 6 10 6.44772 10 7V12C10 12.5523 10.4477 13 11 13C11.5523 13 12 12.5523 12 12ZM11 16C10.4477 16 10 15.5523 10 15C10 14.4477 10.4477 14 11 14C11.5523 14 12 14.4477 12 15C12 15.5523 11.5523 16 11 16Z" fill="#8A9299"/>
</svg>
