<svg width="22" height="22" viewBox="0 0 22 22" fill="none" xmlns="http://www.w3.org/2000/svg">
<path fill-rule="evenodd" clip-rule="evenodd" d="M5 3C3.89543 3 3 3.89543 3 5V17C3 18.1046 3.89543 19 5 19H17C18.1046 19 19 18.1046 19 17V5C19 3.89543 18.1046 3 17 3H5ZM9.89855 10.9889L7 15H9.09868L10.8222 12.1887C10.9029 12.0746 10.9668 11.9524 11.0163 11.8256H11.041C11.0944 11.9548 11.1622 12.0804 11.2404 12.1991L12.9143 15H15L12.2083 10.9668L14.931 7H12.9704L11.4214 9.52742C11.3172 9.70895 11.2169 9.89745 11.1218 10.0906H11.1036C11.0541 9.97193 10.9616 9.79156 10.8287 9.54953L9.38007 7H7.24361L9.89855 10.9889Z" fill="white"/>
</svg>
