<svg width="32" height="32" viewBox="0 0 32 32" fill="none" xmlns="http://www.w3.org/2000/svg">
<path d="M15.4961 25.7061L5.48076 19.8638C4.81926 19.4779 4.81926 18.5221 5.48076 18.1362L15.4961 12.2939C15.8075 12.1123 16.1925 12.1123 16.5039 12.2939L26.5192 18.1362C27.1807 18.5221 27.1807 19.4779 26.5192 19.8638L16.5039 25.7061C16.1925 25.8877 15.8075 25.8877 15.4961 25.7061Z" stroke="#8A8D99" stroke-width="2" stroke-linecap="round" stroke-linejoin="round"/>
<path d="M15.4961 19.7061L5.48076 13.8638C4.81926 13.4779 4.81926 12.5221 5.48076 12.1362L15.4961 6.29392C15.8075 6.1123 16.1925 6.1123 16.5039 6.29392L26.5192 12.1362C27.1807 12.5221 27.1807 13.4779 26.5192 13.8638L16.5039 19.7061C16.1925 19.8877 15.8075 19.8877 15.4961 19.7061Z" fill="#8A8D99" stroke="#8A8D99" stroke-width="2" stroke-linecap="round" stroke-linejoin="round"/>
</svg>
