<svg width="24" height="24" viewBox="0 0 24 24" fill="none" xmlns="http://www.w3.org/2000/svg">
<rect width="24" height="24" rx="6" fill="#3355FF"/>
<path d="M12.5288 14.9248C11.6798 15.7739 10.5495 16.2426 9.34955 16.2426C8.14962 16.2426 7.01933 15.7739 6.17027 14.9248C4.4159 13.1705 4.4159 10.318 6.17027 8.56358L6.93362 7.80023C7.28449 7.44936 7.85499 7.44936 8.20587 7.80023C8.55674 8.15111 8.55674 8.72161 8.20587 9.07248L7.44252 9.83583C6.3899 10.8885 6.3899 12.6 7.44252 13.6526C7.95142 14.1615 8.62906 14.4427 9.34955 14.4427C10.07 14.4427 10.7477 14.1615 11.2566 13.6526L13.2922 11.617C13.6431 11.2661 14.2136 11.2661 14.5644 11.617C14.9153 11.9679 14.9153 12.5384 14.5644 12.8892L12.5288 14.9248ZM17.1089 15.4337L16.3456 16.1971C16.1688 16.3739 15.9385 16.4596 15.7108 16.4596C15.4831 16.4596 15.2501 16.3712 15.076 16.1971C14.7251 15.8462 14.7251 15.2757 15.076 14.9248L15.8394 14.1615C16.892 13.1089 16.892 11.3974 15.8394 10.3447C14.7868 9.29211 13.0752 9.29211 12.0226 10.3447L9.98702 12.3803C9.63615 12.7312 9.06564 12.7312 8.71477 12.3803C8.3639 12.0295 8.3639 11.459 8.71477 11.1081L10.7504 9.07248C12.5047 7.31812 15.3573 7.31812 17.1116 9.07248C18.866 10.8268 18.866 13.6794 17.1116 15.4337H17.1089Z" fill="white"/>
</svg>
