<svg width="24" height="24" viewBox="0 0 24 24" fill="none" xmlns="http://www.w3.org/2000/svg">
<rect width="24" height="24" rx="6" fill="white"/>
<path d="M13.1774 18.9424C13.0877 18.8971 13.0675 18.8186 13.0756 18.7281C13.1008 18.4383 13.127 18.1496 13.1542 17.8609C13.1835 17.546 13.2127 17.2301 13.242 16.9153C13.2651 16.6587 13.2883 16.4022 13.3115 16.1467C13.3377 15.862 13.3639 15.5763 13.3902 15.2916C13.3902 15.2875 13.3902 15.2835 13.3902 15.2734C13.3075 15.3197 13.2541 15.2775 13.1996 15.2211C13.0171 15.029 12.8326 14.8399 12.6491 14.6487C12.632 14.6306 12.6219 14.6266 12.6007 14.6467C12.4324 14.8157 12.262 14.9827 12.0916 15.1497C12.0775 15.1638 12.0684 15.1799 12.0593 15.197C12.0281 15.2523 11.9867 15.2926 11.9172 15.2946C11.8456 15.2966 11.8002 15.2594 11.769 15.201C11.7528 15.1728 11.7337 15.1497 11.7105 15.1266C11.5542 14.9727 11.398 14.8197 11.2417 14.6658C11.2034 14.6286 11.2034 14.6286 11.1681 14.6658C10.9846 14.857 10.8011 15.0471 10.6176 15.2382C10.6045 15.2523 10.5904 15.2704 10.5743 15.2755C10.5349 15.2875 10.5329 15.3127 10.5359 15.3469C10.5612 15.6054 10.5843 15.865 10.6075 16.1235C10.6277 16.3479 10.6479 16.5732 10.669 16.7976C10.6922 17.0551 10.7164 17.3126 10.7406 17.5702C10.7608 17.7935 10.7819 18.0168 10.8021 18.2402C10.8172 18.4052 10.8313 18.5691 10.8465 18.7341C10.8485 18.7603 10.8465 18.7864 10.8424 18.8126C10.8303 18.875 10.7971 18.9202 10.7356 18.9414H10.6942C10.5954 18.8951 10.5511 18.8126 10.5329 18.709C10.5017 18.5259 10.4674 18.3438 10.4341 18.1607C10.3494 17.6979 10.2657 17.2362 10.1811 16.7734C10.0913 16.2795 10.0026 15.7865 9.91288 15.2926C9.81508 14.7513 9.71628 14.2101 9.61748 13.6699C9.60538 13.6055 9.60235 13.5401 9.57715 13.4787V13.3882C9.61042 13.3047 9.66789 13.2413 9.74249 13.191C9.79189 13.1578 9.84634 13.1387 9.89977 13.1156H9.96631C10.0409 13.1417 10.1145 13.1719 10.1811 13.2162C10.3 13.2966 10.3807 13.3972 10.3736 13.5502C10.3736 13.5572 10.3736 13.5642 10.3756 13.5703C10.3998 13.8349 10.424 14.0994 10.4482 14.363C10.4553 14.4445 10.4634 14.526 10.4724 14.6206C10.4855 14.6045 10.4906 14.5964 10.4976 14.5894C10.671 14.4043 10.8445 14.2192 11.0169 14.034C11.0279 14.022 11.037 14.0079 11.0451 13.9938C11.1106 13.864 11.2568 13.865 11.3294 13.9898C11.3395 14.0069 11.3506 14.022 11.3637 14.0361C11.5371 14.2111 11.7115 14.3862 11.8839 14.5622C11.9081 14.5863 11.9202 14.5874 11.9444 14.5622C12.141 14.356 12.3497 14.1608 12.5402 13.9485C12.6058 13.8751 12.6955 13.8801 12.757 13.9576C12.7711 13.9747 12.7822 13.9938 12.7973 14.0099C13.003 14.2292 13.2087 14.4485 13.4144 14.6668C13.4234 14.6759 13.4295 14.691 13.4466 14.691C13.4486 14.6739 13.4517 14.6578 13.4537 14.6417C13.488 14.2634 13.5232 13.8852 13.5545 13.5069C13.5626 13.4113 13.6009 13.3359 13.6714 13.2745C13.6997 13.2504 13.7299 13.2282 13.7602 13.2071C13.8217 13.1649 13.8912 13.1397 13.9608 13.1156H14.0273C14.0354 13.1296 14.0515 13.1266 14.0626 13.1307C14.1947 13.184 14.3076 13.2574 14.35 13.4043V13.4787C14.3348 13.4918 14.3369 13.5109 14.3338 13.527C14.3076 13.6699 14.2824 13.8137 14.2562 13.9576C14.1665 14.4515 14.0757 14.9445 13.986 15.4384C13.8882 15.9777 13.7904 16.5179 13.6926 17.0571C13.5918 17.6114 13.491 18.1657 13.3891 18.72C13.371 18.8216 13.3256 18.9031 13.2228 18.9414H13.1815L13.1774 18.9424Z" fill="#EFB61D"/>
<path d="M5.41755 14.605L5.07578 11.1564C2.41111 10.912 0.950225 13.3435 2.44438 15.5084C2.99687 16.4611 3.78125 17.1804 4.71585 17.7518C5.77748 18.448 7.03773 18.8836 8.31714 18.8705C7.86143 18.2749 7.16376 17.8776 6.75241 17.2206L6.51347 16.8494C5.99929 16.1684 5.83898 15.3092 5.41957 14.604" fill="url(#paint0_linear_1284_29416)"/>
<path d="M10.6679 6.05901C8.3319 4.88802 6.01809 6.85678 5.41821 9.09313C4.43017 12.3999 5.28815 16.613 8.19479 18.7045C6.70971 16.767 6.377 14.0356 7.39428 11.8134C7.83788 10.9019 8.45087 10.1253 9.24735 9.49252C9.93091 8.45432 10.8211 7.58311 11.7729 6.79038C11.4442 6.48757 11.0722 6.24714 10.6679 6.06002V6.05901Z" fill="url(#paint1_linear_1284_29416)"/>
<path d="M22.5594 9.1433C21.9676 1.56102 11.6577 4.78527 9.24512 9.49439C14.8376 5.82951 19.6507 13.7951 16.2077 18.4106C19.6901 16.7457 22.6642 13.1321 22.5594 9.1443V9.1433Z" fill="url(#paint2_linear_1284_29416)"/>
<defs>
<linearGradient id="paint0_linear_1284_29416" x1="2.9515" y1="11.8697" x2="9.24466" y2="23.4824" gradientUnits="userSpaceOnUse">
<stop stop-color="#F89040"/>
<stop offset="1" stop-color="#EA2A09"/>
</linearGradient>
<linearGradient id="paint1_linear_1284_29416" x1="8.31174" y1="5.92018" x2="8.66408" y2="19.8776" gradientUnits="userSpaceOnUse">
<stop stop-color="#FFD926"/>
<stop offset="1" stop-color="#E78D13"/>
</linearGradient>
<linearGradient id="paint2_linear_1284_29416" x1="15.9033" y1="4.72793" x2="15.9033" y2="26.1629" gradientUnits="userSpaceOnUse">
<stop stop-color="#26ADE2"/>
<stop offset="1" stop-color="#2659AF"/>
</linearGradient>
</defs>
</svg>
