<svg width="22" height="22" viewBox="0 0 22 22" fill="none" xmlns="http://www.w3.org/2000/svg">
<g clip-path="url(#clip0_1318_24848)">
<path fill-rule="evenodd" clip-rule="evenodd" d="M19 11C19 15.4183 15.4183 19 11 19C6.58172 19 3 15.4183 3 11C3 6.58172 6.58172 3 11 3C15.4183 3 19 6.58172 19 11ZM10.823 16C10.5415 16 10.2971 15.898 10.0897 15.6941C9.89708 15.5059 9.80078 15.2784 9.80078 15.0118C9.80078 14.7294 9.89708 14.4941 10.0897 14.3059C10.2971 14.102 10.5415 14 10.823 14C11.0897 14 11.3193 14.102 11.5119 14.3059C11.7045 14.4941 11.8008 14.7294 11.8008 15.0118C11.8008 15.2784 11.7045 15.5059 11.5119 15.6941C11.3193 15.898 11.0897 16 10.823 16ZM11.2292 12.7968C11.3681 12.6613 11.4375 12.4957 11.4375 12.3V11.7581C11.4375 11.5624 11.5139 11.3817 11.6667 11.2161C11.8333 11.0355 12.0278 10.8548 12.25 10.6742C12.5694 10.4183 12.8542 10.1172 13.1042 9.77097C13.3681 9.42473 13.5 8.93548 13.5 8.30323C13.5 7.62581 13.2569 7.07634 12.7708 6.65484C12.2847 6.21828 11.6736 6 10.9375 6C10.4931 6 10.0833 6.09785 9.70833 6.29355C9.34722 6.48925 9.05556 6.75269 8.83333 7.08387C8.61111 7.4 8.5 7.75376 8.5 8.14516C8.5 8.34086 8.56944 8.51398 8.70833 8.66452C8.86111 8.81505 9.02778 8.89032 9.20833 8.89032C9.38889 8.89032 9.54167 8.83011 9.66667 8.70968C9.80556 8.57419 9.88194 8.42366 9.89583 8.25806C9.92361 7.95699 10.0278 7.72366 10.2083 7.55806C10.3889 7.39247 10.6319 7.30968 10.9375 7.30968C11.2986 7.30968 11.5833 7.41505 11.7917 7.62581C12.0139 7.8215 12.125 8.08495 12.125 8.41613C12.125 8.76237 12.0208 9.06344 11.8125 9.31935C11.6181 9.56021 11.4028 9.77849 11.1667 9.97419C10.9167 10.1849 10.6667 10.4258 10.4167 10.6968C10.1806 10.9677 10.0625 11.3215 10.0625 11.7581V12.3C10.0625 12.4957 10.125 12.6613 10.25 12.7968C10.3889 12.9323 10.5556 13 10.75 13C10.9444 13 11.1042 12.9323 11.2292 12.7968Z" fill="black"/>
</g>
<defs>
<clipPath id="clip0_1318_24848">
<rect width="16" height="16" fill="white" transform="translate(3 3)"/>
</clipPath>
</defs>
</svg>
